<?xml version="1.0" standalone="no"?>
<!DOCTYPE svg PUBLIC "-//W3C//DTD SVG 1.1//EN" "http://www.w3.org/Graphics/SVG/1.1/DTD/svg11.dtd">
<svg width="100%" height="100%" viewBox="0 0 150 150" version="1.1" xmlns="http://www.w3.org/2000/svg" xmlns:xlink="http://www.w3.org/1999/xlink" xml:space="preserve" style="fill-rule:evenodd;clip-rule:evenodd;stroke-linejoin:round;stroke-miterlimit:1.41421;">
    <g id="Layer1">
        <path id="path6988" d="M74.9985,0.46604C44.3986,0.46604 19.5926,23.6731 19.5926,52.3008C19.5926,80.9283 44.3986,104.136 74.9985,104.136C105.599,104.136 130.405,80.9283 130.405,52.3008C130.405,23.6731 105.599,0.46604 74.9985,0.46604L74.9985,0.46604ZM40.7545,69.9732L109.243,69.9732C109.243,81.5619 89.8434,93.011 74.9985,93.011C60.154,93.011 40.7545,80.9518 40.7545,69.9732ZM40.3686,106.655C18.7709,115.101 3.19021,131.188 -0.160065,150.211L150.155,150.211C146.805,131.188 131.224,115.101 109.626,106.655C99.4858,112.32 87.6663,115.654 74.9976,115.654C62.3286,115.654 50.5091,112.32 40.3686,106.655Z" style="fill:rgb(51,51,51);fill-rule:nonzero;"/>
    </g>
</svg>
