<?xml version="1.0" standalone="no"?>
<!DOCTYPE svg PUBLIC "-//W3C//DTD SVG 1.1//EN" "http://www.w3.org/Graphics/SVG/1.1/DTD/svg11.dtd">
<svg width="100%" height="100%" viewBox="0 0 50 50" version="1.1" xmlns="http://www.w3.org/2000/svg" xmlns:xlink="http://www.w3.org/1999/xlink" xml:space="preserve" style="fill-rule:evenodd;clip-rule:evenodd;stroke-linejoin:round;stroke-miterlimit:1.41421;">
    <g id="Layer1">
        <path id="path10254" d="M3.01585,0.0285051L3.01585,50.0267L24.3136,50.0267C30.7613,50.0267 35.8951,48.7713 39.5266,46.1936C43.1694,43.6078 44.9853,39.6826 44.9849,34.7771C44.9849,32.0935 44.2244,29.6908 42.6585,27.6113C41.3822,25.8964 39.4238,24.7263 37.11,23.9445C38.7278,23.04 40.3894,22.2045 41.3161,20.7776C42.5781,18.8357 43.1955,16.6373 43.1955,14.1948C43.1955,9.56666 41.2393,5.8939 37.3789,3.52847C33.5466,1.157 28.3372,0.0285051 21.8082,0.0285051L4.08941,0.0285051L3.01585,0.0285051ZM15.0069,8.52847L21.8082,8.52847C24.7684,8.52847 27.0448,9.05325 28.6988,10.1949C30.3718,11.3238 31.2039,13.1932 31.2042,15.4445C31.2042,17.4794 30.3955,19.2321 28.7882,20.3614C27.1715,21.4702 24.9189,21.9827 22.0762,22.0277L15.0086,22.0277L15.0086,21.028L15.0086,9.52826L15.0069,8.52847ZM15.0069,27.3609L25.0307,27.3609C27.6193,27.3609 29.6633,28.0475 31.0264,29.3608C31.0655,29.3972 31.0874,29.3244 31.1132,29.3608C32.4316,30.6493 33.0822,32.4725 33.0822,34.694C33.0822,36.8325 32.309,38.7087 30.7554,39.8607C29.2072,40.9817 27.0003,41.4444 24.3123,41.4436L16.0794,41.4436L15.0056,41.4436L15.0056,40.4439L15.0049,28.3611L15.0045,27.3609L15.0069,27.3609Z" style="fill:rgb(99,40,22);fill-rule:nonzero;"/>
    </g>
</svg>
