<?xml version="1.0" standalone="no"?>
<!DOCTYPE svg PUBLIC "-//W3C//DTD SVG 1.1//EN" "http://www.w3.org/Graphics/SVG/1.1/DTD/svg11.dtd">
<svg width="100%" height="100%" viewBox="0 0 50 50" version="1.1" xmlns="http://www.w3.org/2000/svg" xmlns:xlink="http://www.w3.org/1999/xlink" xml:space="preserve" style="fill-rule:evenodd;clip-rule:evenodd;stroke-linejoin:round;stroke-miterlimit:1.41421;">
    <g id="Layer1">
        <path id="path6941-7" d="M10.9263,0.0902322L10.9263,3.3118L2.32071,3.3118L-0.0262811,3.3118L-0.0262811,50.0245L50.0428,50.0245L50.0428,47.6083L50.0428,5.32527L50.0428,3.3118L47.6958,3.3118L38.3078,3.3118L38.3078,0.0902322L32.8315,0.0902322L32.8315,3.3118L16.4026,3.3118L16.4026,0.0902322L10.9263,0.0902322ZM3.10303,6.53336L10.9263,6.53336L10.9263,8.94953L16.4026,8.94953L16.4026,6.53336L32.8315,6.53336L32.8315,8.94953L38.3078,8.94953L38.3078,6.53336L46.9135,6.53336L46.9135,46.8029L3.10303,46.8029L3.10303,6.53336ZM16.4026,13.7819L16.4026,21.0304L23.4436,21.0304L23.4436,13.7819L16.4026,13.7819ZM25.7906,13.7819L25.7906,21.0304L32.8315,21.0304L32.8315,13.7819L25.7906,13.7819ZM35.1785,13.7819L35.1785,21.0304L42.2195,21.0304L42.2195,13.7819L35.1785,13.7819ZM7.01468,24.252L7.01468,31.5005L14.0556,31.5005L14.0556,24.252L7.01468,24.252ZM16.4026,24.252L16.4026,31.5005L23.4436,31.5005L23.4436,24.252L16.4026,24.252ZM25.7906,24.252L25.7906,31.5005L32.8315,31.5005L32.8315,24.252L25.7906,24.252ZM35.1785,24.252L35.1785,31.5005L42.2195,31.5005L42.2195,24.252L35.1785,24.252ZM7.01468,34.722L7.01468,41.9706L14.0556,41.9706L14.0556,34.722L7.01468,34.722ZM16.4026,34.722L16.4026,41.9706L23.4436,41.9706L23.4436,34.722L16.4026,34.722ZM25.7906,34.722L25.7906,41.9706L32.8315,41.9706L32.8315,34.722L25.7906,34.722Z" style="fill:rgb(99,40,22);fill-rule:nonzero;"/>
    </g>
</svg>
