<?xml version="1.0" standalone="no"?>
<!DOCTYPE svg PUBLIC "-//W3C//DTD SVG 1.1//EN" "http://www.w3.org/Graphics/SVG/1.1/DTD/svg11.dtd">
<svg width="100%" height="100%" viewBox="0 0 50 50" version="1.1" xmlns="http://www.w3.org/2000/svg" xmlns:xlink="http://www.w3.org/1999/xlink" xml:space="preserve" style="fill-rule:evenodd;clip-rule:evenodd;stroke-linejoin:round;stroke-miterlimit:1.41421;">
    <g id="Layer1">
        <path id="path7190" d="M46.5963,3.41377C43.6175,0.371758 39.9952,-0.861231 38.5058,0.659776L33.1122,6.16769C34.6016,4.64684 38.2238,5.87975 41.2026,8.92177C44.1815,11.9637 45.3889,15.6627 43.8995,17.1836L49.2931,11.6757C50.7825,10.1548 49.5751,6.45571 46.5963,3.41377L46.5963,3.41377ZM39.18,10.9872C36.2012,7.94531 32.5789,6.71224 31.0895,8.23333L29.0669,10.2987C30.5563,8.7778 34.1786,10.0107 37.1574,13.0526C40.1362,16.0947 41.3436,19.7937 39.8542,21.3147L41.8769,19.2492C43.3662,17.7282 42.1589,14.0293 39.18,10.9872L39.18,10.9872ZM35.1348,15.1182C32.1559,12.0762 28.5337,10.8432 27.0443,12.3642L25.0217,14.4297C26.5111,12.9087 30.1333,14.1417 33.1122,17.1836C36.091,20.2256 37.2984,23.9247 35.809,25.4457L37.8316,23.3801C39.321,21.8592 38.1136,18.1601 35.1348,15.1182L35.1348,15.1182ZM31.0895,19.2492C28.1107,16.2072 24.4884,14.9743 22.999,16.4952L11.7903,27.9415L9.51489,30.2652C11.0134,31.7955 13.1475,32.1575 14.8032,31.3624C14.9277,32.4474 15.4052,33.5263 16.257,34.3961C17.1088,35.266 18.1653,35.7537 19.2277,35.8807C18.4492,37.5716 18.8037,39.7508 20.3022,41.2811L22.5777,38.9575L33.7864,27.5111C35.2758,25.9902 34.0684,22.2912 31.0895,19.2492L31.0895,19.2492ZM12.7806,33.4279C11.1248,34.223 8.99079,33.8609 7.49227,32.3306L0.0759938,50.9201L18.2796,43.3466C16.7811,41.8164 16.4265,39.6371 17.2051,37.9462C16.1427,37.8191 15.0861,37.3314 14.2343,36.4616C13.3826,35.5918 12.905,34.5129 12.7806,33.4279Z" style="fill:rgb(51,51,51);fill-rule:nonzero;"/>
    </g>
</svg>
