<?xml version="1.0" standalone="no"?>
<!DOCTYPE svg PUBLIC "-//W3C//DTD SVG 1.1//EN" "http://www.w3.org/Graphics/SVG/1.1/DTD/svg11.dtd">
<svg width="100%" height="100%" viewBox="0 0 50 50" version="1.1" xmlns="http://www.w3.org/2000/svg" xmlns:xlink="http://www.w3.org/1999/xlink" xml:space="preserve" style="fill-rule:evenodd;clip-rule:evenodd;stroke-linejoin:round;stroke-miterlimit:1.41421;">
    <g id="Layer1">
        <path id="path9689" d="M24.9943,10.4812C11.1857,10.4812 0.0169752,23.7363 0.0169752,26.1462C0.0169752,28.5561 11.1857,41.8113 24.9943,41.8113C38.8031,41.8113 50.0274,28.5561 50.0274,26.1462C50.0274,23.7363 38.8031,10.4812 24.9943,10.4812ZM19.8186,16.0443C18.3752,17.8351 17.4561,20.3448 17.4561,23.145C17.4561,28.5755 20.8212,33.0271 24.9943,33.0271C29.1672,33.0271 32.5887,28.5752 32.5887,23.145C32.5887,20.3448 31.6694,17.8351 30.2257,16.0443C34.2276,17.1112 37.8687,19.2359 40.7456,21.5344C42.7819,23.1616 44.4332,24.8519 45.4708,26.1462C44.4325,27.4392 42.7756,29.1358 40.7456,30.758C36.6571,34.0243 30.9878,36.9802 24.9943,36.9802C19.0007,36.9802 13.3878,34.0247 9.2991,30.758C7.26871,29.1358 5.61185,27.4392 4.57352,26.1462C5.61167,24.8519 7.26295,23.1613 9.2991,21.5344C12.1759,19.2359 15.8171,17.1112 19.8186,16.0443L19.8186,16.0443ZM26.6818,16.9962C28.4107,16.9962 29.8321,18.7725 29.8321,21.0222C29.8321,23.2719 28.4107,25.1215 26.6818,25.1215C24.9529,25.1215 23.588,23.2719 23.5877,21.0222C23.5877,18.7725 24.9529,16.996 26.6818,16.9962Z" style="fill:rgb(99,40,22);fill-rule:nonzero;"/>
    </g>
</svg>
