<?xml version="1.0" standalone="no"?>
<!DOCTYPE svg PUBLIC "-//W3C//DTD SVG 1.1//EN" "http://www.w3.org/Graphics/SVG/1.1/DTD/svg11.dtd">
<svg width="100%" height="100%" viewBox="0 0 50 50" version="1.1" xmlns="http://www.w3.org/2000/svg" xmlns:xlink="http://www.w3.org/1999/xlink" xml:space="preserve" style="fill-rule:evenodd;clip-rule:evenodd;stroke-linejoin:round;stroke-miterlimit:1.41421;">
    <g transform="matrix(0.855034,0,0,0.751487,-158.834,-4791.42)">
        <g id="Layer1">
            <path id="path9964" d="M185.652,6375.98L190.997,6435.79L214.966,6442.45L239,6435.78L244.351,6375.98L185.652,6375.98ZM196.575,6387.93L233.383,6387.93L232.726,6396.07L232.7,6396.07L215.001,6396.07L214.975,6396.07L204.604,6396.07L205.276,6403L232.057,6403L231.875,6404.97L230.151,6424.32L230.04,6425.56L214.976,6429.73L214.966,6429.73L199.917,6425.55L198.886,6414.02L206.263,6414.02L206.784,6419.88L214.971,6422.09L214.976,6422.09L223.173,6419.88L224.022,6410.05L215.001,6410.05L214.975,6410.05L198.556,6410.05C197.894,6402.64 197.239,6395.34 196.574,6387.93L196.575,6387.93Z" style="fill:rgb(110,45,22);fill-rule:nonzero;"/>
        </g>
    </g>
</svg>
