<?xml version="1.0" standalone="no"?>
<!DOCTYPE svg PUBLIC "-//W3C//DTD SVG 1.1//EN" "http://www.w3.org/Graphics/SVG/1.1/DTD/svg11.dtd">
<svg width="100%" height="100%" viewBox="0 0 50 50" version="1.1" xmlns="http://www.w3.org/2000/svg" xmlns:xlink="http://www.w3.org/1999/xlink" xml:space="preserve" style="fill-rule:evenodd;clip-rule:evenodd;stroke-linejoin:round;stroke-miterlimit:1.41421;">
    <g id="Layer1">
        <path id="path9028" d="M25.0615,0.133504C11.298,0.133504 0.141113,11.243 0.141113,24.9477C0.141113,38.6527 11.298,49.7618 25.0615,49.7618C38.8237,49.7618 49.9819,38.6529 49.9819,24.9477C49.9819,11.243 38.8237,0.133504 25.0615,0.133504ZM24.9328,3.10601L27.1394,4.01074L26.1009,6.53103C24.8561,7.10378 23.6457,7.54938 22.337,7.95243L21.5582,9.30961L20.8445,9.63279L19.8709,7.69398L20.5848,6.9185L20.5848,6.1431L18.6378,4.78615L19.2218,4.26919L22.337,3.36452L24.9328,3.10601L24.9328,3.10601ZM18.8973,3.29978L19.2218,3.81674C18.6055,4.01571 18.0498,4.24708 17.4697,4.5277L16.561,4.72163L16.1718,5.10918L15.0685,4.91541L15.3281,4.59222L15.7174,4.46319L16.4314,4.07519L17.2749,4.01052L17.7943,3.42904L18.8973,3.29963L18.8973,3.29978ZM13.9003,5.62614L14.3548,6.40154L14.6789,5.75555L15.4578,5.62614L15.5227,6.07859L17.1452,6.20777L17.5346,7.11243L18.508,7.50013L17.5995,8.21087C17.0344,7.82956 16.4769,7.49434 15.9122,7.11243L15.0686,6.7894C14.6964,7.03671 14.396,7.30741 14.0302,7.56487L13.511,8.53405L12.7322,8.53405L12.9918,7.75865L12.0185,8.66331L9.94163,9.89116L10.1368,10.7312L11.7595,11.4421L12.0191,12.5406L12.668,11.2481L13.5115,10.9251L13.4466,10.3435L14.4204,8.72783L15.5884,9.3742L15.4596,10.1497L16.4332,9.76175L16.8874,10.6666L16.6921,11.1836L17.276,11.4421L17.7953,11.8943L17.6002,12.4113L16.1726,12.9283L15.1992,12.9283L13.7713,13.5745L16.0425,13.5745L15.2638,14.7376L13.7713,15.0608L13.0575,16.03L11.8244,16.4822L11.3051,17.9041L9.68284,19.261L9.48763,21.1349L8.57909,19.9719L7.28119,19.7135L7.08598,20.295L6.04763,20.295L4.87924,21.1996L4.61969,22.3628L4.68463,23.4612L5.5934,23.9137L6.17721,23.6552L6.76148,22.8152L7.34553,22.8152C7.25936,23.4838 7.16905,24.2141 7.08598,24.8831L8.1244,24.8184L8.1244,25.7876L8.44882,26.757C8.85948,27.0087 9.4803,27.012 9.9414,27.1448L9.9414,26.951L11.4341,25.5938L12.8618,26.6925L14.5491,26.4986L15.2628,28.3079L16.496,28.5664L17.2099,29.9233C18.5905,30.6307 19.9722,31.3689 21.3633,32.0559L21.2333,33.413L20.1949,34.8344L20.3251,36.8378L19.6758,38.3241L18.3778,38.6471L17.7941,39.4871L17.9893,40.0688L17.2103,42.1366L16.1071,42.5888L15.8473,43.1705L15.1986,43.8812L15.3938,44.3336C15.3935,44.3336 15.1703,44.4648 15.0042,44.5922C14.8358,44.7176 12.1481,43.2613 12.0839,43.0413C12.0174,42.8219 12.0839,42.8473 12.0839,42.8473L12.6678,40.5857L12.0839,39.4871L12.1488,37.4839L11.5001,36.5792L10.0073,35.2224L8.4498,32.4436L8.90419,31.0219L8.70898,30.6342L9.29295,29.8588L9.94201,28.0494L9.94201,27.8554L9.42306,27.6617L8.70898,27.7263L7.54096,26.8862L6.76216,25.9169L5.00988,25.4645L3.19303,24.366C3.19303,24.3659 2.45546,23.2104 2.41423,23.0089C3.50597,14.3072 8.19909,9.69986 10.5261,7.56487C10.7089,7.51976 11.4349,7.37087 11.4349,7.37087L11.8242,6.33695L12.538,6.40162L13.0573,6.72488L12.9923,7.7588L13.1211,7.50028L13.8351,6.91858L13.7702,5.9494L13.8988,5.62622L13.9003,5.62614ZM35.5758,6.33703L36.6792,6.7248L38.6909,7.11251L38.2369,7.69398L37.0684,7.69398L38.2369,8.85731L39.0804,7.88791L39.34,7.43547C39.34,7.43547 42.5455,10.338 44.4019,13.51C46.2591,16.6829 47.1276,20.4402 47.1276,21.1997L46.5437,21.9104C46.1541,21.4536 45.6899,21.0841 45.2458,20.6827L44.2721,20.8119L43.4285,19.778L43.4285,21.0704L44.1423,21.5873L44.7266,22.2335L45.3754,21.3934C45.5476,21.7116 45.6594,22.0445 45.8296,22.3628L45.8296,23.3322L45.1157,24.1721L43.6882,25.1415L42.7147,26.1754C43.1888,26.1409 43.6571,26.042 44.1423,25.9815L44.1423,26.6924L43.104,29.2125L42.1954,30.1817L41.4167,31.7973L41.4167,34.5113L41.6762,35.5453L41.2869,35.9977L40.3784,36.6437L39.4048,37.4192L40.1836,38.3241L39.0804,39.2932L39.2755,39.9394L37.6532,41.7488L36.5498,41.7488L35.5763,42.395L34.9921,42.395L34.9921,41.5548L34.7969,40.0687C34.4691,39.1096 34.1062,38.1129 33.7584,37.1606C33.7584,36.458 33.7796,35.7959 33.8234,35.0929L34.2128,34.1236L33.6286,32.9605L33.6935,31.4096L32.9149,30.4402L33.3045,29.2125L32.5904,28.4371L31.4872,28.4371L31.0979,28.0494L29.9946,28.6955L29.4755,28.2433L28.502,29.1478C27.7822,28.3359 27.0161,27.5041 26.2957,26.6924L25.3868,24.6891L26.1656,23.5259L25.7765,23.0089L26.6846,20.8764C27.4499,19.9287 28.2773,19.0104 29.086,18.0979L30.5138,17.7102L32.1362,17.5162L33.2396,17.8393L34.7971,19.3902L35.3162,18.8086L36.1599,18.6148L37.5875,19.1318L38.6258,19.1318L39.4047,18.421L39.7291,17.9686L39.0154,17.5162L37.7175,17.4515C37.3647,16.9641 37.0331,16.4626 36.6142,16.0299L36.2247,16.159L36.0295,17.4514L35.2509,16.5467L35.122,15.5776L34.2135,14.9311L33.8889,14.9311L34.7976,15.9005L34.473,16.7405L33.7592,16.9345L34.1486,16.0945L33.4348,15.642L32.7208,14.9311L31.4878,15.1896L31.2283,15.5776L30.5143,16.0945L30.125,17.1285L29.0215,17.6454L28.5674,17.1285L28.0485,17.1285L28.0485,15.3836L29.1516,14.8666L30.0599,14.8666L29.8006,14.1557L29.1516,13.5097L30.3194,13.2512L30.9038,12.5403L31.1634,12.0878L30.5143,12.7343L29.5408,12.928L29.736,11.7648L29.736,10.9249L29.4118,10.5369L29.4118,10.02L29.8657,10.02C30.1154,10.5269 30.3826,10.978 30.5797,11.5063L31.1638,12.0878L31.4882,11.7003L32.3966,11.7003L32.1371,10.9894L32.7213,10.6664L32.7213,11.4419L33.954,11.7003L35.2523,10.6664L35.3173,10.1495L36.4207,9.37397C36.0224,9.4236 35.6414,9.46165 35.2523,9.56775L35.2523,8.7276L35.6419,7.75842L35.2523,7.75842L34.2789,8.66309L34.0837,9.11553L34.2789,9.76152L33.8894,10.9249L33.2407,10.5369L32.5916,9.89101L31.748,10.5369L31.3584,8.98605L32.981,7.95212L32.981,7.37065L33.9544,6.7245L35.5769,6.3368L35.5758,6.33703ZM27.2042,7.56495L27.7232,8.14643L26.6847,8.85731L26.1009,8.46939L26.1659,7.88791L26.4903,7.95258L27.2043,7.5651L27.2042,7.56495ZM16.0418,7.75873L16.8856,8.14643L16.8856,8.85731L16.1718,8.85731L15.3932,8.21094L16.0418,7.75873ZM29.0862,11.1189L29.4109,11.9591L28.6968,12.3466L28.4373,11.2482L29.0862,11.119L29.0862,11.1189ZM17.3396,12.8636L18.1835,13.3805L17.5994,14.1559L17.3396,12.8636Z" style="fill:rgb(0,120,160);fill-rule:nonzero;"/>
    </g>
</svg>
