<?xml version="1.0" standalone="no"?>
<!DOCTYPE svg PUBLIC "-//W3C//DTD SVG 1.1//EN" "http://www.w3.org/Graphics/SVG/1.1/DTD/svg11.dtd">
<svg width="100%" height="100%" viewBox="0 0 50 50" version="1.1" xmlns="http://www.w3.org/2000/svg" xmlns:xlink="http://www.w3.org/1999/xlink" xml:space="preserve" style="fill-rule:evenodd;clip-rule:evenodd;stroke-linejoin:round;stroke-miterlimit:1.41421;">
    <g id="Layer1">
        <path id="path7960" d="M-0.0501535,-0.0410482L-0.0501535,9.17832C2.61344,6.32699 6.42397,4.78466 9.44807,4.2394C10.3832,4.0707 11.2577,3.96017 11.9672,3.91012C12.6766,3.86007 13.2435,3.90995 13.5777,3.91012L29.766,3.91012L25.0994,6.66774L20.9285,6.66774C20.9735,6.8033 23.2659,8.63642 24.6452,11.4008C25.3875,12.8882 25.8841,14.6521 25.8841,16.5043C25.8841,17.3608 25.8841,18.2908 25.595,19.1796C25.108,20.6547 24.7896,21.5876 24.3149,22.2664C22.7319,24.5304 22.1034,24.1396 19.4831,27.164C18.0469,28.8222 17.6111,29.8871 17.5836,30.7038C17.5625,31.2882 17.6655,31.9921 18.2443,32.5969C18.8563,33.237 19.7692,33.8293 21.135,34.9429C23.3329,36.735 25.6065,38.5695 26.9165,40.7049C28.264,42.9005 28.6042,45.4336 28.2793,48.1133C28.2053,48.7275 28.0326,49.3603 27.7838,50.0066L50.1666,50.0066L50.1666,14.6282L44.1059,14.6282L44.1059,20.6684L39.7769,20.6684L39.7769,14.6282L33.7163,14.6282L33.7163,10.3137L39.7769,10.3137L39.7769,4.27348L44.1059,4.27348L44.1059,10.3137L50.1666,10.3137L50.1666,-0.0410482L-0.0501535,-0.0410482ZM10.1502,6.5031C8.69839,6.49016 7.71362,6.91453 7.71362,6.91453C6.11315,7.91419 1.98732,8.43848 3.66654,18.5622C5.31537,28.5005 14.2799,27.0819 14.2799,27.0819C14.2796,27.0819 22.1057,25.4154 18.3682,14.2407C16.1901,7.72858 12.5693,6.51881 10.1502,6.5031L10.1502,6.5031ZM-0.0501535,25.9295L-0.0501535,39.6759C5.45677,36.9961 12.3801,37.1654 12.3801,37.1654C12.3801,37.1654 12.9052,37.0904 12.2982,36.3833C9.75217,33.4232 11.0179,29.2221 11.0179,29.2221C11.0179,29.2221 7.77575,29.6433 4.78204,28.8103C3.78603,28.5333 1.39585,27.0819 1.39585,27.0819C1.39585,27.0819 0.757963,26.6668 -0.0495993,25.9295L-0.0501535,25.9295ZM15.0644,39.4291C13.5163,39.5332 11.9939,39.4084 10.8109,39.5111C7.25294,39.8205 5.29991,40.4473 3.37754,41.7337C2.47416,42.3381 1.61162,42.7699 0.734552,43.9561C0.392412,44.4187 0.147146,44.887 -0.0501535,45.3556L-0.0501535,50.0063L23.2412,50.0063C23.298,49.0442 23.187,48.0395 22.952,46.9194C22.2806,43.7221 15.0644,39.429 15.0644,39.429L15.0644,39.4291Z" style="fill:rgb(215,61,50);fill-rule:nonzero;"/>
    </g>
</svg>
