<?xml version="1.0" standalone="no"?>
<!DOCTYPE svg PUBLIC "-//W3C//DTD SVG 1.1//EN" "http://www.w3.org/Graphics/SVG/1.1/DTD/svg11.dtd">
<svg width="100%" height="100%" viewBox="0 0 50 50" version="1.1" xmlns="http://www.w3.org/2000/svg" xmlns:xlink="http://www.w3.org/1999/xlink" xml:space="preserve" style="fill-rule:evenodd;clip-rule:evenodd;stroke-linejoin:round;stroke-miterlimit:1.41421;">
    <g id="Layer1">
        <path id="path6951" d="M25.0286,0.0538194C18.4855,0.0538194 13.1875,7.71233 13.1875,17.171C13.1875,26.6298 18.4855,34.2883 25.0286,34.2883C31.5719,34.2883 36.8698,26.6298 36.8698,17.171C36.8698,7.71233 31.5719,0.0538194 25.0286,0.0538194ZM8.83374,8.43206C5.26633,8.43206 2.40015,12.6153 2.40015,17.7723C2.40015,22.9293 5.26633,27.1126 8.83374,27.1126C10.2719,27.1126 11.5869,26.418 12.6606,25.2687C12.429,24.5471 12.2203,23.8294 12.0505,23.0638C11.2375,24.1931 9.92887,25.028 8.83374,25.028C7.10315,25.028 4.84047,22.8768 4.84047,20.8991L11.6623,20.8991C11.4992,19.6982 11.4128,18.4426 11.4128,17.171C11.4128,14.6344 11.7749,12.2283 12.3833,9.99543C11.3623,9.01838 10.1495,8.43206 8.83374,8.43206L8.83374,8.43206ZM41.2235,8.43206C39.9079,8.43206 38.6951,9.01838 37.674,9.99543C38.2825,12.2283 38.6446,14.6344 38.6446,17.171C38.6446,18.4426 38.5585,19.6982 38.395,20.8991L45.2168,20.8991C45.2168,22.8768 42.9543,25.028 41.2235,25.028C40.1285,25.028 38.8199,24.1931 38.0068,23.0638C37.8371,23.8294 37.6284,24.5471 37.3967,25.2687C38.4705,26.418 39.7854,27.1126 41.2235,27.1126C44.791,27.1126 47.6571,22.9293 47.6571,17.7723C47.6571,12.6153 44.791,8.43206 41.2235,8.43206L41.2235,8.43206ZM17.7077,22.6095L32.3496,22.6095C32.3496,26.4384 28.2029,30.226 25.0286,30.226C21.8544,30.226 17.7077,26.2368 17.7077,22.6095ZM4.81279,27.5537C2.29481,29.075 0.461372,32.0107 0.0707415,35.4374L13.6035,35.4374C14.6161,34.4407 15.7082,33.5169 16.8757,32.8051C15.6957,31.5137 14.6692,29.9907 13.8253,28.2351C13.8138,28.2222 13.8085,28.2043 13.7978,28.1949C13.5067,27.963 13.1975,27.7437 12.8827,27.5535C11.7005,28.5738 10.311,29.1971 8.834,29.197C7.35703,29.197 5.99524,28.5738 4.81296,27.5535L4.81279,27.5537ZM37.1748,27.5537C36.8602,27.7438 36.5508,27.9632 36.2597,28.195C36.2509,28.2104 36.2393,28.2198 36.2322,28.2344C35.3884,29.99 34.3619,31.513 33.1818,32.8045C34.3494,33.5162 35.4412,34.4403 36.4538,35.437L49.9866,35.437C49.596,32.0103 47.7627,29.0744 45.2448,27.553C44.0626,28.5733 42.7008,29.1966 41.2238,29.1965C39.7469,29.1965 38.3573,28.5733 37.1751,27.553L37.1748,27.5537ZM17.6245,35.1301C13.0063,37.9205 9.66105,43.6905 8.94466,49.9757L41.1126,49.9757C40.3963,43.6905 37.0511,37.9205 32.4329,35.1301C30.2645,37.0017 27.7377,38.0965 25.0286,38.0966C22.3197,38.0966 19.7929,37.0017 17.6245,35.1301Z" style="fill:white;fill-rule:nonzero;"/>
    </g>
</svg>
