<?xml version="1.0" standalone="no"?>
<!DOCTYPE svg PUBLIC "-//W3C//DTD SVG 1.1//EN" "http://www.w3.org/Graphics/SVG/1.1/DTD/svg11.dtd">
<svg width="100%" height="100%" viewBox="0 0 50 50" version="1.1" xmlns="http://www.w3.org/2000/svg" xmlns:xlink="http://www.w3.org/1999/xlink" xml:space="preserve" style="fill-rule:evenodd;clip-rule:evenodd;stroke-linejoin:round;stroke-miterlimit:1.41421;">
    <g transform="matrix(0.591595,0,0,0.855193,-338.802,-1078.02)">
        <g id="Layer1">
            <path id="path6951" d="M615,1260.62C603.94,1260.62 594.985,1269.58 594.985,1280.64C594.985,1291.7 603.94,1300.66 615,1300.66C626.061,1300.66 635.016,1291.7 635.016,1280.64C635.016,1269.58 626.061,1260.62 615,1260.62ZM587.625,1270.42C581.595,1270.42 576.75,1275.31 576.75,1281.34C576.75,1287.37 581.595,1292.27 587.625,1292.27C590.056,1292.27 592.279,1291.45 594.094,1290.11C593.702,1289.27 593.35,1288.43 593.063,1287.53C591.688,1288.85 589.476,1289.83 587.625,1289.83C584.7,1289.83 580.875,1287.31 580.875,1285L592.406,1285C592.131,1283.6 591.985,1282.13 591.985,1280.64C591.985,1277.67 592.597,1274.86 593.625,1272.25C591.899,1271.11 589.849,1270.42 587.625,1270.42L587.625,1270.42ZM642.375,1270.42C640.151,1270.42 638.101,1271.11 636.375,1272.25C637.404,1274.86 638.016,1277.67 638.016,1280.64C638.016,1282.13 637.87,1283.6 637.594,1285L649.125,1285C649.125,1287.31 645.301,1289.83 642.375,1289.83C640.524,1289.83 638.312,1288.85 636.938,1287.53C636.651,1288.43 636.298,1289.27 635.906,1290.11C637.722,1291.45 639.944,1292.27 642.375,1292.27C648.405,1292.27 653.25,1287.37 653.25,1281.34C653.25,1275.31 648.405,1270.42 642.375,1270.42L642.375,1270.42ZM602.625,1287L627.375,1287C627.375,1291.48 620.366,1295.9 615,1295.9C609.635,1295.9 602.625,1291.24 602.625,1287ZM580.828,1292.78C576.572,1294.56 573.473,1297.99 572.813,1302L595.688,1302C597.399,1300.83 599.245,1299.75 601.219,1298.92C599.224,1297.41 597.489,1295.63 596.063,1293.58C596.043,1293.56 596.034,1293.54 596.016,1293.53C595.524,1293.26 595.001,1293 594.469,1292.78C592.471,1293.97 590.122,1294.7 587.626,1294.7C585.129,1294.7 582.827,1293.97 580.829,1292.78L580.828,1292.78ZM635.531,1292.78C635,1293 634.477,1293.26 633.985,1293.53C633.97,1293.55 633.95,1293.56 633.938,1293.58C632.512,1295.63 630.777,1297.41 628.782,1298.92C630.755,1299.75 632.601,1300.83 634.313,1302L657.188,1302C656.527,1297.99 653.429,1294.56 649.172,1292.78C647.174,1293.97 644.872,1294.7 642.376,1294.7C639.879,1294.7 637.53,1293.97 635.532,1292.78L635.531,1292.78ZM602.485,1301.64C594.678,1304.9 589.024,1311.65 587.813,1319L642.188,1319C640.977,1311.65 635.322,1304.9 627.516,1301.64C623.851,1303.83 619.579,1305.11 615,1305.11C610.421,1305.11 606.15,1303.83 602.485,1301.64Z" style="fill:rgb(58,58,58);fill-rule:nonzero;"/>
        </g>
    </g>
</svg>
