<?xml version="1.0" standalone="no"?>
<!DOCTYPE svg PUBLIC "-//W3C//DTD SVG 1.1//EN" "http://www.w3.org/Graphics/SVG/1.1/DTD/svg11.dtd">
<svg width="100%" height="100%" viewBox="0 0 50 50" version="1.1" xmlns="http://www.w3.org/2000/svg" xmlns:xlink="http://www.w3.org/1999/xlink" xml:space="preserve" style="fill-rule:evenodd;clip-rule:evenodd;stroke-linejoin:round;stroke-miterlimit:1.41421;">
    <g id="Layer1">
        <path id="path7970" d="M25.0119,0.033434C11.2205,0.033434 0.0455215,11.2286 0.0455215,25.0448C0.0455215,38.8611 11.2205,50.0563 25.0119,50.0563C38.8033,50.0563 49.9783,38.8611 49.9783,25.0448C49.9783,11.2286 38.8033,0.033434 25.0119,0.033434ZM25.0119,4.20203C36.4939,4.20203 45.8172,13.5422 45.8172,25.0448C45.8172,36.5476 36.4939,45.8878 25.0119,45.8877C13.5299,45.8877 4.20659,36.5476 4.20659,25.0448C4.20659,13.5422 13.5299,4.20203 25.0119,4.20203L25.0119,4.20203ZM25.0119,11.8262C23.3573,11.8262 22.0292,13.1566 22.0292,14.8142C22.0292,16.4719 23.3573,17.8023 25.0119,17.8023C26.6666,17.8023 27.9946,16.4719 27.9946,14.8142C27.9946,13.1566 26.6666,11.8262 25.0119,11.8262ZM22.6552,19.5362L22.6552,38.4239L27.3686,38.4239L27.3686,19.5362L22.6552,19.5362Z" style="fill:rgb(99,40,22);fill-rule:nonzero;"/>
    </g>
</svg>
