<?xml version="1.0" standalone="no"?>
<!DOCTYPE svg PUBLIC "-//W3C//DTD SVG 1.1//EN" "http://www.w3.org/Graphics/SVG/1.1/DTD/svg11.dtd">
<svg width="100%" height="100%" viewBox="0 0 50 50" version="1.1" xmlns="http://www.w3.org/2000/svg" xmlns:xlink="http://www.w3.org/1999/xlink" xml:space="preserve" style="fill-rule:evenodd;clip-rule:evenodd;stroke-linejoin:round;stroke-miterlimit:1.41421;">
    <g id="Layer1">
        <path id="path8014" d="M33.2001,0.104052C31.5113,0.281928 29.7524,1.11897 28.3352,2.53532L22.7157,8.10996C19.8816,10.9424 19.1984,15.3666 21.4995,17.6666L22.0866,18.2534L32.2776,8.02607C32.9473,7.35651 33.9449,7.34529 34.584,7.9842L41.8394,15.2355C42.4786,15.8742 42.4671,16.8716 41.7975,17.5408L31.5648,27.7262L32.1519,28.313C34.4541,30.6121 38.8795,29.9302 41.7137,27.0974L47.2914,21.4808C50.1257,18.6481 50.599,14.4755 48.2979,12.1756L37.6458,1.52938C36.4951,0.379352 34.8891,-0.0735991 33.2002,0.104127L33.2001,0.104052ZM29.6773,15.5707C28.9912,15.5707 28.3159,15.7999 27.7901,16.3252L16.383,27.7261C15.3315,28.777 15.3315,30.4476 16.383,31.4985L18.3122,33.4266C19.3636,34.4775 21.0351,34.4775 22.0866,33.4266L33.4937,22.0256C34.5452,20.9747 34.5452,19.3042 33.4937,18.2534L31.5646,16.3252C31.0389,15.7999 30.3634,15.5707 29.6773,15.5707L29.6773,15.5707ZM14.4539,20.0976C12.3468,19.9849 9.93457,20.884 8.16322,22.6545L2.58546,28.2709C-0.248873,31.1036 -0.722197,35.2761 1.57904,37.5762L12.2312,48.2225C14.5325,50.5225 18.7073,50.0492 21.5415,47.2165L27.161,41.6419C29.9951,38.8094 30.6775,34.3861 28.3774,32.0853L27.7901,31.4985L17.5992,41.7258C16.9295,42.395 15.9316,42.4066 15.2926,41.7669L8.03731,34.5156C7.39814,33.8767 7.40951,32.8796 8.07846,32.2103L18.3113,22.0249L17.7242,21.4382C16.8612,20.5755 15.7172,20.1648 14.453,20.0968L14.4539,20.0976Z" style="fill:rgb(58,58,58);fill-rule:nonzero;"/>
    </g>
</svg>
