<?xml version="1.0" standalone="no"?>
<!DOCTYPE svg PUBLIC "-//W3C//DTD SVG 1.1//EN" "http://www.w3.org/Graphics/SVG/1.1/DTD/svg11.dtd">
<svg width="100%" height="100%" viewBox="0 0 50 50" version="1.1" xmlns="http://www.w3.org/2000/svg" xmlns:xlink="http://www.w3.org/1999/xlink" xml:space="preserve" style="fill-rule:evenodd;clip-rule:evenodd;stroke-linejoin:round;stroke-miterlimit:1.41421;">
    <g id="Layer1">
        <g style="filter:url(#tag1);">
            <path id="path7974" d="M24.449,9.64868C20.911,9.64868 18.0491,13.3312 18.0491,17.8833C18.0491,20.8006 18.8102,22.5139 19.7616,24.0914C20.713,25.6692 21.8769,27.0685 22.549,29.2058C23.2958,31.5806 23.6222,33.9332 23.874,35.6714C24,36.5404 24.1183,37.2652 24.2365,37.73C24.295,37.9626 24.3526,38.1341 24.3989,38.2124C24.4452,38.2912 24.4447,38.2762 24.4486,38.2762C24.4486,38.2762 24.454,38.2939 24.4982,38.2124C24.5445,38.1337 24.6016,37.9625 24.6606,37.73C24.7787,37.2652 24.8971,36.5404 25.0231,35.6714C25.275,33.9332 25.6013,31.5806 26.3481,29.2058C27.0203,27.0685 28.1841,25.6692 29.1355,24.0914C30.0869,22.5139 30.848,20.8006 30.848,17.8833C30.848,13.3312 27.9861,9.64868 24.4482,9.64868L24.449,9.64868ZM24.449,15.0849C25.6437,15.0849 26.6114,16.3302 26.6114,17.8673C26.6114,19.4045 25.6437,20.6496 24.449,20.6496C23.2543,20.6496 22.2866,19.4045 22.2866,17.8673C22.2866,16.3302 23.2543,15.0849 24.449,15.0849Z" style="fill:rgb(58,58,58);fill-opacity:0.466667;fill-rule:nonzero;"/>
        </g>
    </g>
    <defs>
        <filter id="tag1"><feGaussianBlur in="SourceGraphic" stdDeviation="0.922996"/></filter>
    </defs>
</svg>
