<?xml version="1.0" standalone="no"?>
<!DOCTYPE svg PUBLIC "-//W3C//DTD SVG 1.1//EN" "http://www.w3.org/Graphics/SVG/1.1/DTD/svg11.dtd">
<svg width="100%" height="100%" viewBox="0 0 50 50" version="1.1" xmlns="http://www.w3.org/2000/svg" xmlns:xlink="http://www.w3.org/1999/xlink" xml:space="preserve" style="fill-rule:evenodd;clip-rule:evenodd;stroke-linejoin:round;stroke-miterlimit:1.41421;">
    <g id="Layer1">
        <path id="path7974" d="M25.5894,7.08991C21.421,7.08991 18.0491,11.1015 18.0491,16.0605C18.0491,19.2385 18.9458,21.1049 20.0667,22.8235C21.1877,24.5422 22.559,26.0667 23.3509,28.395C24.2308,30.982 24.6153,33.5449 24.912,35.4384C25.0605,36.3851 25.1999,37.1747 25.3391,37.6811C25.408,37.9344 25.4758,38.1213 25.5304,38.2066C25.585,38.2924 25.5844,38.2761 25.5889,38.2761C25.5889,38.2761 25.5954,38.2953 25.6474,38.2066C25.7019,38.1209 25.7692,37.9343 25.8388,37.6811C25.9779,37.1747 26.1174,36.3851 26.2659,35.4384C26.5626,33.5449 26.9471,30.982 27.8269,28.395C28.6189,26.0667 29.9901,24.5423 31.1112,22.8235C32.232,21.1049 33.1287,19.2385 33.1287,16.0605C33.1287,11.1015 29.7569,7.08991 25.5885,7.08991L25.5894,7.08991ZM25.5894,13.012C26.9971,13.012 28.1372,14.3686 28.1372,16.0431C28.1372,17.7176 26.9971,19.0741 25.5894,19.074C24.1819,19.074 23.0417,17.7176 23.0417,16.0431C23.0417,14.3686 24.1819,13.012 25.5894,13.012Z" style="fill:white;fill-rule:nonzero;"/>
    </g>
</svg>
