<?xml version="1.0" standalone="no"?>
<!DOCTYPE svg PUBLIC "-//W3C//DTD SVG 1.1//EN" "http://www.w3.org/Graphics/SVG/1.1/DTD/svg11.dtd">
<svg width="100%" height="100%" viewBox="0 0 50 50" version="1.1" xmlns="http://www.w3.org/2000/svg" xmlns:xlink="http://www.w3.org/1999/xlink" xml:space="preserve" style="fill-rule:evenodd;clip-rule:evenodd;stroke-linejoin:round;stroke-miterlimit:1.41421;">
    <g id="Layer1">
        <path d="M20.6697,30.2714L49.8299,30.2714L49.8299,20.2215L20.6697,20.2215L20.6697,30.2714ZM20.6697,50.3712L49.8299,50.3712L49.8299,40.3213L20.6697,40.3213L20.6697,50.3712ZM20.6697,0.121615L20.6697,10.1715L49.8299,10.1715L49.8299,0.121615L20.6697,0.121615ZM4.98299,20.2215L10.06,20.2215L10.06,0.121615L7.71677,0.121615L2.18412,1.92746L2.18412,5.85321L4.98299,5.69618L4.98299,20.2215ZM12.1429,36.3956C12.1429,33.569 11.3618,30.2714 5.89425,30.2714C3.74628,30.2714 1.72849,30.7425 0.491785,31.5276L0.556875,36.7096C1.92376,35.9245 3.29065,35.5319 4.9179,35.5319C6.54515,35.5319 7.00078,36.3956 7.00078,37.7303C7.00078,39.7717 5.04808,42.2842 -0.159115,46.524L-0.159115,50.4497L12.3382,50.4497L12.3382,45.1892L6.41497,45.3463C9.60437,42.9908 12.0778,40.1643 12.0778,36.4741L12.1429,36.3956Z" style="fill:rgb(99,40,22);fill-rule:nonzero;"/>
    </g>
</svg>
