<?xml version="1.0" standalone="no"?>
<!DOCTYPE svg PUBLIC "-//W3C//DTD SVG 1.1//EN" "http://www.w3.org/Graphics/SVG/1.1/DTD/svg11.dtd">
<svg width="100%" height="100%" viewBox="0 0 50 50" version="1.1" xmlns="http://www.w3.org/2000/svg" xmlns:xlink="http://www.w3.org/1999/xlink" xml:space="preserve" style="fill-rule:evenodd;clip-rule:evenodd;stroke-linejoin:round;stroke-miterlimit:1.41421;">
    <g id="Layer1">
        <path id="path8109" d="M24.9489,-0.0738316C20.3073,1.41125 16.7202,9.07838 16.7201,20.5052C16.7201,28.9229 18.6797,36.0866 21.5606,38.0263L21.5606,45.7674L28.3372,45.7674L28.3372,38.0263C31.218,36.0866 33.1776,28.9229 33.1776,20.5052C33.1775,9.07838 29.5904,1.41125 24.9489,-0.0738316L24.9489,-0.0738316ZM24.9489,9.26527C26.5408,9.26527 27.8229,10.4326 27.8229,11.8824C27.8229,13.3321 26.5408,14.5271 24.9489,14.5271C23.3568,14.5271 22.0748,13.3321 22.0748,11.8824C22.0748,10.4326 23.3568,9.26527 24.9489,9.26527ZM18.6563,36.9518L13.8159,41.3596L13.8159,50.1753L18.6563,45.7674L18.6563,36.9518ZM31.2414,36.9518L31.2414,45.7674L36.0819,50.1753L36.0819,41.3596L31.2414,36.9518Z" style="fill:white;fill-rule:nonzero;"/>
    </g>
</svg>
