<?xml version="1.0" standalone="no"?>
<!DOCTYPE svg PUBLIC "-//W3C//DTD SVG 1.1//EN" "http://www.w3.org/Graphics/SVG/1.1/DTD/svg11.dtd">
<svg width="100%" height="100%" viewBox="0 0 50 50" version="1.1" xmlns="http://www.w3.org/2000/svg" xmlns:xlink="http://www.w3.org/1999/xlink" xml:space="preserve" style="fill-rule:evenodd;clip-rule:evenodd;stroke-linejoin:round;stroke-miterlimit:1.41421;">
    <g id="Layer1">
        <path id="path8582" d="M-0.130022,-0.308594L-0.130022,50.005L50.0552,50.005L50.0552,10.8923L40.1874,-0.308594L34.1629,-0.308594L34.1629,18.8585L7.39777,18.8585L7.39777,-0.308594L-0.130022,-0.308594ZM19.9441,2.08729L19.9441,14.0667L29.9811,14.0667L29.9811,2.08729L19.9441,2.08729ZM7.39777,26.8448L42.5275,26.8448L42.5275,45.2132L7.39777,45.2132L7.39777,26.8448ZM12.4163,30.8379L12.4163,33.2338L37.5089,33.2338L37.5089,30.8379L12.4163,30.8379ZM12.4163,38.0256L12.4163,40.4215L37.5089,40.4215L37.5089,38.0256L12.4163,38.0256Z" style="fill:white;fill-rule:nonzero;"/>
    </g>
</svg>
