<?xml version="1.0" standalone="no"?>
<!DOCTYPE svg PUBLIC "-//W3C//DTD SVG 1.1//EN" "http://www.w3.org/Graphics/SVG/1.1/DTD/svg11.dtd">
<svg width="100%" height="100%" viewBox="0 0 50 50" version="1.1" xmlns="http://www.w3.org/2000/svg" xmlns:xlink="http://www.w3.org/1999/xlink" xml:space="preserve" style="fill-rule:evenodd;clip-rule:evenodd;stroke-linejoin:round;stroke-miterlimit:1.41421;">
    <g id="Layer1">
        <path id="path6931" d="M17.6978,-0.0371803C7.90042,-0.0371803 -0.0419262,7.97059 -0.0419262,17.8487C-0.0419262,27.7267 7.90042,35.7345 17.6978,35.7345C21.821,35.7345 25.6297,34.3272 28.642,31.9482L32.7193,36.059C31.8226,36.963 31.8226,38.4364 32.7193,39.3405L42.7694,49.4734C43.6661,50.3774 45.0916,50.3774 45.9883,49.4734L49.243,46.1919C50.1397,45.2878 50.1397,43.8506 49.243,42.9465L39.1929,32.8137C38.2962,31.9095 36.8349,31.9095 35.9382,32.8137L31.8252,28.6667C34.0905,25.663 35.4375,21.9132 35.4375,17.8487C35.4375,7.97059 27.4951,-0.0371803 17.6978,-0.0371803ZM17.6978,3.71307C25.4319,3.71307 31.7179,10.0507 31.7179,17.8487C31.7179,25.6465 25.4319,31.9842 17.6978,31.9842C9.96362,31.9842 3.67769,25.6465 3.67769,17.8487C3.67769,10.0507 9.96362,3.71307 17.6978,3.71307Z" style="fill:rgb(58,58,58);fill-rule:nonzero;"/>
    </g>
</svg>
