<?xml version="1.0" standalone="no"?>
<!DOCTYPE svg PUBLIC "-//W3C//DTD SVG 1.1//EN" "http://www.w3.org/Graphics/SVG/1.1/DTD/svg11.dtd">
<svg width="100%" height="100%" viewBox="0 0 50 50" version="1.1" xmlns="http://www.w3.org/2000/svg" xmlns:xlink="http://www.w3.org/1999/xlink" xml:space="preserve" style="fill-rule:evenodd;clip-rule:evenodd;stroke-linejoin:round;stroke-miterlimit:1.41421;">
    <g transform="matrix(0.762998,0,0,0.769283,-138.908,-135.431)">
        <g id="Layer1">
            <path id="path6931" d="M205.251,175.999C192.41,175.999 182.001,186.409 182.001,199.249C182.001,212.09 192.41,222.499 205.251,222.499C210.655,222.499 215.646,220.67 219.594,217.578L224.938,222.921C223.763,224.096 223.763,226.012 224.938,227.187L238.11,240.359C239.285,241.534 241.153,241.534 242.329,240.359L246.594,236.093C247.77,234.918 247.77,233.05 246.594,231.874L233.422,218.703C232.247,217.527 230.332,217.527 229.157,218.703L223.766,213.312C226.735,209.407 228.501,204.533 228.501,199.249C228.501,186.409 218.091,175.999 205.251,175.999ZM205.251,180.874C215.387,180.874 223.626,189.113 223.626,199.249C223.626,209.386 215.387,217.624 205.251,217.624C195.114,217.624 186.876,209.386 186.876,199.249C186.876,189.113 195.114,180.874 205.251,180.874Z" style="fill:white;fill-rule:nonzero;"/>
        </g>
    </g>
</svg>
