<?xml version="1.0" standalone="no"?>
<!DOCTYPE svg PUBLIC "-//W3C//DTD SVG 1.1//EN" "http://www.w3.org/Graphics/SVG/1.1/DTD/svg11.dtd">
<svg width="100%" height="100%" viewBox="0 0 50 50" version="1.1" xmlns="http://www.w3.org/2000/svg" xmlns:xlink="http://www.w3.org/1999/xlink" xml:space="preserve" style="fill-rule:evenodd;clip-rule:evenodd;stroke-linejoin:round;stroke-miterlimit:1.41421;">
    <g id="Layer1">
        <path id="path11501" d="M23.732,0.0350655C10.5706,0.704693 0.109443,11.6559 0.109295,25.0027C0.109443,38.7803 11.2603,49.9702 25.0174,49.9703C38.7744,49.9703 49.9252,38.7803 49.9254,25.0027C49.9254,11.656 39.4645,0.706327 26.3028,0.0350655C25.878,0.014265 25.4474,0.0350655 25.0174,0.0350655C24.5874,0.0350655 24.1566,0.014265 23.732,0.0350655ZM23.9405,3.69149C24.3028,3.67292 24.6504,3.69149 25.0174,3.69149C25.3843,3.69149 25.7318,3.67292 26.0942,3.69149C37.3286,4.26455 46.2776,13.6107 46.2778,25.0027C46.2778,36.7625 36.7596,46.2794 25.0174,46.279C13.2752,46.279 3.75723,36.7625 3.757,25.0027C3.757,13.6107 12.7061,4.26358 23.9405,3.69149L23.9405,3.69149ZM17.0969,16.2623C15.3642,16.2623 13.9703,17.6612 13.9703,19.3962C13.9703,21.1316 15.3642,22.5651 17.0969,22.5651C18.8293,22.5651 20.2234,21.1314 20.2234,19.3962C20.2234,17.6612 18.8293,16.2623 17.0969,16.2623ZM32.9379,16.2623C31.2054,16.2623 29.8114,17.6612 29.8114,19.3962C29.8114,21.1316 31.2054,22.5651 32.9379,22.5651C34.6706,22.5651 36.0644,21.1314 36.0644,19.3962C36.0644,17.6612 34.6706,16.2623 32.9379,16.2623ZM16.8537,30.8528C16.4622,31.2523 16.1936,31.6864 16.1936,32.1413C16.1936,34.0908 20.1522,37.4343 25.0174,37.4343C29.8825,37.4343 33.8411,34.0907 33.8411,32.1413C33.8411,31.6864 33.5725,31.2523 33.181,30.8528C31.241,31.6432 28.3146,32.1413 25.0174,32.1413C21.7199,32.1413 18.7939,31.6432 16.8537,30.8528Z" style="fill:white;fill-rule:nonzero;"/>
    </g>
</svg>
