<?xml version="1.0" standalone="no"?>
<!DOCTYPE svg PUBLIC "-//W3C//DTD SVG 1.1//EN" "http://www.w3.org/Graphics/SVG/1.1/DTD/svg11.dtd">
<svg width="100%" height="100%" viewBox="0 0 50 50" version="1.1" xmlns="http://www.w3.org/2000/svg" xmlns:xlink="http://www.w3.org/1999/xlink" xml:space="preserve" style="fill-rule:evenodd;clip-rule:evenodd;stroke-linejoin:round;stroke-miterlimit:1.41421;">
    <g id="Layer1">
        <path id="path8052" d="M37.4674,-0.0109375L37.4674,9.13267L17.3625,9.13267C10.8642,9.13267 6.4463,11.7509 4.1387,16.0618C1.83111,20.3727 1.56575,25.6437 1.56575,30.8487L6.53214,26.0627C6.77087,23.2599 7.27217,20.8607 8.17764,19.1692C9.56595,16.5759 11.8379,14.8474 17.3625,14.8474L37.4674,14.8474L37.4674,23.991L49.9133,11.9187L37.4674,-0.0109375L37.4674,-0.0109375ZM48.4772,19.4192L43.5108,24.2054C43.2721,27.0081 42.7708,29.4072 41.8653,31.0988C40.477,33.6921 38.2051,35.4205 32.6805,35.4205L12.5756,35.4205L12.5756,26.2769L0.129682,38.3494L12.5756,50.2789L12.5756,41.1353L32.6805,41.1353C39.1788,41.1353 43.5967,38.517 45.9043,34.2062C48.2119,29.8953 48.4772,24.6244 48.4772,19.4192Z" style="fill:rgb(58,58,58);fill-rule:nonzero;"/>
    </g>
</svg>
