<?xml version="1.0" standalone="no"?>
<!DOCTYPE svg PUBLIC "-//W3C//DTD SVG 1.1//EN" "http://www.w3.org/Graphics/SVG/1.1/DTD/svg11.dtd">
<svg width="100%" height="100%" viewBox="0 0 50 50" version="1.1" xmlns="http://www.w3.org/2000/svg" xmlns:xlink="http://www.w3.org/1999/xlink" xml:space="preserve" style="fill-rule:evenodd;clip-rule:evenodd;stroke-linejoin:round;stroke-miterlimit:1.41421;">
    <g id="Layer1">
        <path id="path7251" d="M36.9228,2.53452C34.3701,-0.0273566 31.0186,-0.804748 29.4019,0.817777L29.0762,1.14481C27.4594,2.76734 28.234,6.13102 30.7866,8.6929L31.0854,8.99272L19.6819,20.4375C15.8861,16.9201 11.2285,15.8418 8.98421,18.094C6.64423,20.4425 7.85493,25.4625 11.7265,29.348L14.1974,33.061L0.194182,48.443L0.00413991,49.9963L1.55167,49.8055L18.1071,35.7517L20.5779,38.2314C24.4493,42.117 29.4513,43.332 31.7913,40.9837C34.041,38.7257 32.9549,34.0345 29.4291,30.2201L40.8326,18.7752L41.1583,19.1023C43.711,21.6641 47.0625,22.4415 48.6793,20.8189L49.0051,20.4919C50.6217,18.8694 49.8472,15.5058 47.2945,12.9439L36.9228,2.53452Z" style="fill:rgb(61,149,96);fill-rule:nonzero;"/>
    </g>
</svg>
