<?xml version="1.0" standalone="no"?>
<!DOCTYPE svg PUBLIC "-//W3C//DTD SVG 1.1//EN" "http://www.w3.org/Graphics/SVG/1.1/DTD/svg11.dtd">
<svg width="100%" height="100%" viewBox="0 0 50 50" version="1.1" xmlns="http://www.w3.org/2000/svg" xmlns:xlink="http://www.w3.org/1999/xlink" xml:space="preserve" style="fill-rule:evenodd;clip-rule:evenodd;stroke-linejoin:round;stroke-miterlimit:1.41421;">
    <g id="Layer1">
        <path id="path7287" d="M17.2352,-0.0831473C15.4993,-0.0831473 14.1018,0.866678 14.1018,2.04651L14.1018,6.90482C5.76634,7.85635 0.00167411,9.84892 0.00167411,12.1624C0.00167411,16.8578 11.2245,18.0189 25.0686,18.0189C38.9128,18.0189 50.1356,17.0296 50.1356,12.1624C50.1356,9.70638 45.2112,7.60845 36.0354,6.73835L36.0354,2.04651C36.0354,0.866678 34.638,-0.0831473 32.9021,-0.0831473L17.2352,-0.0831473ZM18.8019,3.11133L31.3354,3.11133L31.3354,6.43892C29.8079,6.37077 27.2055,6.30582 25.0686,6.30582C22.8968,6.30582 20.8116,6.38461 18.8019,6.50551L18.8019,3.11133ZM3.282,19.2264L6.26842,45.7044C6.26842,48.0568 13.8204,49.9637 25.0686,49.9637C36.317,49.9637 43.8689,48.0568 43.8689,45.7044L46.8553,19.2264C42.5468,20.6771 34.4188,21.5671 25.0686,21.5671C15.7186,21.5671 7.5907,20.6771 3.282,19.2264Z" style="fill:white;fill-rule:nonzero;"/>
    </g>
</svg>
