<?xml version="1.0" standalone="no"?>
<!DOCTYPE svg PUBLIC "-//W3C//DTD SVG 1.1//EN" "http://www.w3.org/Graphics/SVG/1.1/DTD/svg11.dtd">
<svg width="100%" height="100%" viewBox="0 0 50 50" version="1.1" xmlns="http://www.w3.org/2000/svg" xmlns:xlink="http://www.w3.org/1999/xlink" xml:space="preserve" style="fill-rule:evenodd;clip-rule:evenodd;stroke-linejoin:round;stroke-miterlimit:1.41421;">
    <g id="Layer1">
        <path id="path8113" d="M49.8538,6.04068C48.0248,7.03824 46.0589,7.71239 43.996,8.01559C46.1013,6.46333 47.7188,4.00608 48.4804,1.07768C46.5095,2.51499 44.3268,3.55818 42.0034,4.12059C40.1431,1.68373 37.4924,0.160968 34.5587,0.160968C28.9261,0.160968 24.3591,5.77522 24.3591,12.7004C24.3591,13.6829 24.4491,14.6401 24.6233,15.5581C16.1466,15.0347 8.63101,10.0427 3.60067,2.45643C2.72269,4.30815 2.21972,6.46212 2.21972,8.76018C2.21972,13.1108 4.02023,16.9489 6.75715,19.1974C5.08513,19.1324 3.51239,18.5684 2.13737,17.6291C2.13667,17.682 2.13667,17.7345 2.13667,17.7868C2.13667,23.8625 5.65249,28.9302 10.3183,30.0827C9.46256,30.369 8.56151,30.5223 7.63124,30.5223C6.97406,30.5223 6.33508,30.4434 5.71229,30.2974C7.01015,35.2789 10.7769,38.9048 15.2401,39.0056C11.7494,42.3689 7.3516,44.3734 2.57296,44.3734C1.7497,44.3734 0.937876,44.3144 0.139918,44.198C4.65353,47.7562 10.0149,49.8324 15.7748,49.8324C34.5351,49.8324 44.7944,30.7247 44.7944,14.154C44.7944,13.6108 44.7838,13.0699 44.7647,12.532C46.7578,10.7641 48.4869,8.55554 49.8542,6.04068" style="fill:white;fill-rule:nonzero;"/>
    </g>
</svg>
