<?xml version="1.0" standalone="no"?>
<!DOCTYPE svg PUBLIC "-//W3C//DTD SVG 1.1//EN" "http://www.w3.org/Graphics/SVG/1.1/DTD/svg11.dtd">
<svg width="100%" height="100%" viewBox="0 0 50 50" version="1.1" xmlns="http://www.w3.org/2000/svg" xmlns:xlink="http://www.w3.org/1999/xlink" xml:space="preserve" style="fill-rule:evenodd;clip-rule:evenodd;stroke-linejoin:round;stroke-miterlimit:1.41421;">
    <g id="Layer1">
        <path id="path8113" d="M49.3676,5.9128C47.5506,6.91618 45.5974,7.59426 43.548,7.89922C45.6396,6.33792 47.2465,3.86635 48.0032,0.920883C46.0452,2.36657 43.8767,3.41584 41.5685,3.98153C39.7204,1.53047 37.0869,-0.00116786 34.1724,-0.00116786C28.5766,-0.00116786 24.0395,5.6458 24.0395,12.6113C24.0395,13.5996 24.1289,14.5623 24.3019,15.4857C15.8806,14.9592 8.4141,9.93817 3.41662,2.30767C2.54438,4.17018 2.04469,6.3367 2.04469,8.64816C2.04469,13.0241 3.83344,16.8846 6.55248,19.1462C4.89138,19.0808 3.32892,18.5135 1.96288,17.5688C1.96218,17.622 1.96218,17.6748 1.96218,17.7274C1.96218,23.8385 5.45504,28.9357 10.0904,30.0949C9.24022,30.3829 8.34505,30.5371 7.42087,30.5371C6.76797,30.5371 6.13317,30.4577 5.51445,30.3109C6.80383,35.3214 10.546,38.9684 14.98,39.0698C11.5121,42.4527 7.14305,44.4689 2.39562,44.4689C1.57775,44.4689 0.771225,44.4096 -0.0215209,44.2925C4.46261,47.8714 9.7889,49.9598 15.5112,49.9598C34.149,49.9598 44.3412,30.7407 44.3412,14.0734C44.3412,13.527 44.3307,12.983 44.3118,12.4419C46.2918,10.6637 48.0096,8.44232 49.368,5.9128" style="fill:rgb(85,172,238);fill-rule:nonzero;"/>
    </g>
</svg>
