<?xml version="1.0" standalone="no"?>
<!DOCTYPE svg PUBLIC "-//W3C//DTD SVG 1.1//EN" "http://www.w3.org/Graphics/SVG/1.1/DTD/svg11.dtd">
<svg width="100%" height="100%" viewBox="0 0 50 50" version="1.1" xmlns="http://www.w3.org/2000/svg" xmlns:xlink="http://www.w3.org/1999/xlink" xml:space="preserve" style="fill-rule:evenodd;clip-rule:evenodd;stroke-linejoin:round;stroke-miterlimit:1.41421;">
    <g id="Layer1">
        <rect x="-0.045397" y="-0.0316723" width="50.1528" height="50.1689" style="fill:rgb(58,58,58);"/>
        <path id="path8113" d="M45.4132,11.8209C43.9008,12.5149 42.2751,12.984 40.5692,13.1949C42.3101,12.1149 43.6477,10.4053 44.2775,8.3678C42.6478,9.36782 40.8428,10.0936 38.9215,10.4849C37.3832,8.78946 35.1912,7.72999 32.7653,7.72999C28.1075,7.72999 24.331,11.6362 24.331,16.4544C24.331,17.138 24.4054,17.804 24.5495,18.4427C17.5398,18.0785 11.325,14.6053 7.16529,9.32708C6.43927,10.6154 6.02335,12.1141 6.02335,13.713C6.02335,16.74 7.51224,19.4103 9.77547,20.9748C8.39283,20.9295 7.0923,20.5371 5.95526,19.8836C5.95467,19.9204 5.95467,19.9569 5.95467,19.9933C5.95467,24.2205 8.862,27.7465 12.7203,28.5483C12.0126,28.7475 11.2675,28.8542 10.4983,28.8542C9.95484,28.8542 9.42645,28.7992 8.91145,28.6977C9.98468,32.1636 13.0995,34.6864 16.7902,34.7565C13.9037,37.0965 10.267,38.4912 6.31545,38.4912C5.63468,38.4912 4.96336,38.4501 4.30351,38.3691C8.03594,40.8448 12.4693,42.2894 17.2324,42.2894C32.7458,42.2894 41.2294,28.995 41.2294,17.4658C41.2294,17.0878 41.2207,16.7115 41.2049,16.3372C42.853,15.1072 44.2828,13.5706 45.4135,11.8209" style="fill:rgb(96,181,240);fill-rule:nonzero;"/>
    </g>
</svg>
