<?xml version="1.0" standalone="no"?>
<!DOCTYPE svg PUBLIC "-//W3C//DTD SVG 1.1//EN" "http://www.w3.org/Graphics/SVG/1.1/DTD/svg11.dtd">
<svg width="100%" height="100%" viewBox="0 0 50 50" version="1.1" xmlns="http://www.w3.org/2000/svg" xmlns:xlink="http://www.w3.org/1999/xlink" xml:space="preserve" style="fill-rule:evenodd;clip-rule:evenodd;stroke-linejoin:round;stroke-miterlimit:1.41421;">
    <g id="Layer1">
        <path d="M0.0127604,29.9346L8.36649,29.9346L8.36649,19.8839L0.0127604,19.8839L0.0127604,29.9346ZM0.0127604,9.83307L8.36649,9.83307L8.36649,-0.217708L0.0127604,-0.217708L0.0127604,9.83307ZM0.0127604,50.0362L8.36649,50.0362L8.36649,39.9854L0.0127604,39.9854L0.0127604,50.0362ZM16.7202,29.9346L50.1352,29.9346L50.1352,19.8839L16.7202,19.8839L16.7202,29.9346ZM16.7202,9.83307L50.1352,9.83307L50.1352,-0.217708L16.7202,-0.217708L16.7202,9.83307ZM16.7202,50.0362L50.1352,50.0362L50.1352,39.9854L16.7202,39.9854L16.7202,50.0362Z" style="fill:rgb(58,58,58);fill-rule:nonzero;"/>
    </g>
</svg>
