<?xml version="1.0" standalone="no"?>
<!DOCTYPE svg PUBLIC "-//W3C//DTD SVG 1.1//EN" "http://www.w3.org/Graphics/SVG/1.1/DTD/svg11.dtd">
<svg width="100%" height="100%" viewBox="0 0 50 50" version="1.1" xmlns="http://www.w3.org/2000/svg" xmlns:xlink="http://www.w3.org/1999/xlink" xml:space="preserve" style="fill-rule:evenodd;clip-rule:evenodd;stroke-linejoin:round;stroke-miterlimit:1.41421;">
    <g id="Layer1">
        <path d="M26.3688,28.5658L23.9689,26.7537C23.238,26.1643 22.2383,25.3863 22.2383,23.962C22.2383,22.5319 23.238,21.6227 24.1056,20.7808C26.9014,18.6412 29.6949,16.3639 29.6949,11.5651C29.6949,6.63034 26.5014,4.03437 24.9709,2.80288L29.0977,2.80288L33.4294,0.156518L20.3066,0.156518C16.7058,0.156518 11.5166,0.984933 7.71756,4.03437C4.85426,6.43642 3.45756,9.74832 3.45756,12.7298C3.45756,17.7911 7.45425,22.9215 14.5119,22.9215C15.1783,22.9215 15.9074,22.8577 16.6413,22.7915C16.3117,23.5713 15.9785,24.2204 15.9785,25.3224C15.9785,27.3325 17.0408,28.5652 17.9771,29.7328C14.9783,29.9332 9.37999,30.256 5.25315,32.7225C1.32274,34.9951 0.12668,38.3029 0.12668,40.6375C0.12668,45.4428 4.78497,49.9188 14.4444,49.9188C25.8988,49.9188 31.9628,43.7561 31.9628,37.6555C31.9634,33.173 29.3002,30.9667 26.3688,28.5658ZM17.6445,21.103C11.9143,21.103 9.31853,13.9004 9.31853,9.5544C9.31853,7.86242 9.64812,6.11537 10.7815,4.75088C11.8498,3.45143 13.7105,2.60837 15.4476,2.60837C20.9718,2.60837 23.8369,9.87546 23.8369,14.5495C23.8369,15.7189 23.7043,17.7911 22.1727,19.2892C21.1013,20.3285 19.3088,21.103 17.6445,21.103ZM17.7102,47.1993C10.5845,47.1993 5.98946,43.885 5.98946,39.2766C5.98946,34.6693 10.2501,33.1109 11.7161,32.5948C14.5119,31.6802 18.1097,31.5525 18.7098,31.5525C19.3756,31.5525 19.7088,31.5525 20.2391,31.6175C25.3047,35.1228 27.5034,36.8698 27.5034,40.1882C27.5034,44.2066 24.1056,47.1993 17.7102,47.1993Z" style="fill:white;fill-rule:nonzero;"/>
        <path d="M43.1883,6.58442L43.1883,0.0959464L39.8924,0.0959464L39.8924,6.58442L33.23,6.58442L33.23,9.82485L39.8924,9.82485L39.8924,16.3532L43.1883,16.3532L43.1883,9.82485L49.8844,9.82485L49.8844,6.58442L43.1883,6.58442Z" style="fill:white;fill-rule:nonzero;"/>
    </g>
</svg>
