<?xml version="1.0" standalone="no"?>
<!DOCTYPE svg PUBLIC "-//W3C//DTD SVG 1.1//EN" "http://www.w3.org/Graphics/SVG/1.1/DTD/svg11.dtd">
<svg width="100%" height="100%" viewBox="0 0 50 50" version="1.1" xmlns="http://www.w3.org/2000/svg" xmlns:xlink="http://www.w3.org/1999/xlink" xml:space="preserve" style="fill-rule:evenodd;clip-rule:evenodd;stroke-linejoin:round;stroke-miterlimit:1.41421;">
    <g id="Layer1">
        <rect x="-0.164165" y="-0.281426" width="50.5625" height="50.4035" style="fill:rgb(220,70,57);"/>
        <path id="path7960" d="M-0.272939,-0.0410326L-0.272939,9.18305C2.40054,6.33026 6.22519,4.78714 9.26051,4.24161C10.1991,4.07282 11.0769,3.96223 11.789,3.91216C12.501,3.86209 13.0701,3.91199 13.4055,3.91216L29.6538,3.91216L24.9699,6.67119L20.7836,6.67119C20.8287,6.80682 23.1296,8.64088 24.5141,11.4066C25.2591,12.8949 25.7576,14.6597 25.7576,16.5128C25.7576,17.3698 25.7576,18.3002 25.4673,19.1895C24.9786,20.6654 24.6589,21.5987 24.1825,22.2778C22.5936,24.543 21.9627,24.152 19.3328,27.178C17.8912,28.837 17.4538,29.9025 17.4262,30.7195C17.405,31.3043 17.5084,32.0085 18.0894,32.6136C18.7037,33.254 19.6199,33.8467 20.9908,34.9608C23.1968,36.7539 25.4789,38.5893 26.7937,40.7258C28.1463,42.9225 28.4877,45.4568 28.1616,48.138C28.0873,48.7525 27.914,49.3856 27.6642,50.0322L50.13,50.0322L50.13,14.6357L44.0469,14.6357L44.0469,20.679L39.7018,20.679L39.7018,14.6357L33.6187,14.6357L33.6187,10.319L39.7018,10.319L39.7018,4.27571L44.0469,4.27571L44.0469,10.319L50.13,10.319L50.13,-0.0410326L-0.272939,-0.0410326ZM9.96523,6.50647C8.50806,6.49352 7.51963,6.9181 7.51963,6.9181C5.91323,7.91827 1.77209,8.44283 3.45754,18.5718C5.11249,28.5151 14.1102,27.0958 14.1102,27.0958C14.11,27.0958 21.9651,25.4284 18.2137,14.248C16.0275,7.73257 12.3933,6.52218 9.96523,6.50647L9.96523,6.50647ZM-0.272939,25.9428L-0.272939,39.6963C5.25441,37.0151 12.2034,37.1845 12.2034,37.1845C12.2034,37.1845 12.7305,37.1094 12.1212,36.402C9.56575,33.4403 10.8362,29.2371 10.8362,29.2371C10.8362,29.2371 7.58199,29.6585 4.57718,28.8251C3.57747,28.5479 1.17842,27.0958 1.17842,27.0958C1.17842,27.0958 0.538175,26.6804 -0.272383,25.9428L-0.272939,25.9428ZM14.8977,39.4494C13.3438,39.5535 11.8158,39.4286 10.6284,39.5314C7.05724,39.8409 5.09697,40.468 3.16746,41.7551C2.26074,42.3598 1.395,42.7918 0.514677,43.9786C0.171267,44.4415 -0.0749076,44.91 -0.272939,45.3789L-0.272939,50.032L23.1048,50.032C23.1618,49.0694 23.0504,48.0641 22.8145,46.9435C22.1406,43.7445 14.8977,39.4492 14.8977,39.4492L14.8977,39.4494Z" style="fill:rgb(58,58,58);fill-rule:nonzero;"/>
    </g>
</svg>
