<?xml version="1.0"?>

<!DOCTYPE svg PUBLIC '-//W3C//DTD SVG 1.0//EN' 'http://www.w3.org/TR/2001/REC-SVG-20010904/DTD/svg10.dtd'>
<svg fill-opacity="1" xmlns:xlink="http://www.w3.org/1999/xlink" color-rendering="auto" color-interpolation="auto" text-rendering="auto" stroke="black" stroke-linecap="square" stroke-miterlimit="10" shape-rendering="auto" stroke-opacity="1" fill="black" stroke-dasharray="none" font-weight="normal" stroke-width="1" xmlns="http://www.w3.org/2000/svg" font-family="&apos;Dialog&apos;" font-style="normal" stroke-linejoin="miter" font-size="12" stroke-dashoffset="0" image-rendering="auto">
  <!--Unicode Character 'MAN IN BUSINESS SUIT LEVITATING' (U+1F574)-->
  <defs id="genericDefs" />
  <g>
    <g>
      <path d="M94.7812 92.3906 L64.2656 92.3906 L64.2656 89.1562 Q66.9375 88.875 70.4531 85.6406 Q71.0156 83.6719 71.0156 81.2812 Q71.0156 79.875 70.7344 78.1875 L88.3125 78.1875 Q88.5938 79.1719 88.5938 80.5781 Q88.5938 81.9844 88.3125 83.6719 Q87.75 87.1875 94.7812 89.4375 L94.7812 92.3906 ZM91.5469 96.8906 Q90.8438 102.5156 87.0469 102.5156 Q84.7969 102.5156 82.5469 100.4766 Q80.2969 98.4375 79.7344 98.4375 Q78.8906 98.4375 77.1328 100.5469 Q75.375 102.6562 73.6875 102.5156 Q70.3125 102.2344 67.7812 96.8906 Q72.1406 94.2188 80.4375 94.2188 Q89.2969 94.2188 91.5469 96.8906 ZM118.6875 122.0625 L109.9688 187.4531 L103.0781 185.2031 L93.9375 255.7969 L66.5156 255.7969 L55.4062 185.2031 L48.2344 187.4531 L42.1875 122.0625 L71.0156 113.9062 L66.9375 120.0938 L75.9375 145.4062 L79.1719 117.9844 L76.5 113.9062 L84.9375 113.9062 L82.2656 117.9844 L84.5156 145.4062 L94.3594 120.0938 L90.1406 113.4844 L118.6875 122.0625 ZM93.7969 262.4062 Q94.0781 266.2031 94.0781 269.4375 Q94.0781 284.3438 87.0469 284.3438 Q81.7031 284.3438 80.8594 272.5312 Q79.875 284.3438 73.8281 284.3438 Q67.6406 284.3438 67.6406 269.8594 Q67.6406 266.4844 67.9219 262.2656 L69.8906 262.4062 Q68.7656 268.5938 73.8281 268.875 Q77.625 269.0156 78.4688 265.6406 Q78.75 264.375 78.3281 262.2656 L80.5781 262.4062 Q80.7188 263.1094 80.8594 264.375 Q80.8594 263.1094 81 262.2656 L82.8281 262.4062 Q81.9844 268.5938 87.0469 268.875 Q90.7031 269.0156 91.5469 265.6406 Q91.9688 264.0938 91.5469 262.2656 L93.7969 262.4062 ZM115.3125 319.0781 Q115.3125 329.2031 80.2969 329.2031 Q45.2812 329.2031 45.2812 319.0781 Q45.2812 312.8906 60.4688 309.7969 Q70.7344 307.6875 80.2969 307.6875 Q89.8594 307.6875 100.125 309.7969 Q115.3125 312.8906 115.3125 319.0781 Z" stroke="none" />
    </g>
  </g>
</svg>
